<svg width="18" height="14" viewBox="0 0 18 14" fill="none" xmlns="http://www.w3.org/2000/svg">
<path fill-rule="evenodd" clip-rule="evenodd" d="M0 12.6875C0 13.4124 0.50368 14 1.125 14H16.875C17.4963 14 18 13.4124 18 12.6875C18 11.9626 17.4963 11.375 16.875 11.375H1.125C0.50368 11.375 0 11.9626 0 12.6875ZM0 7C0 7.72487 0.50368 8.3125 1.125 8.3125H16.875C17.4963 8.3125 18 7.72487 18 7C18 6.27513 17.4963 5.6875 16.875 5.6875H1.125C0.50368 5.6875 0 6.27513 0 7ZM0 1.3125C0 2.03737 0.50368 2.625 1.125 2.625H16.875C17.4963 2.625 18 2.03737 18 1.3125C18 0.587626 17.4963 0 16.875 0H1.125C0.50368 0 0 0.587626 0 1.3125Z" fill="#19020E"/>
</svg>
