<svg width="210" height="31" viewBox="0 0 210 31" fill="none" xmlns="http://www.w3.org/2000/svg">
<path d="M15 0.0499268C6.71562 0.0499268 0 6.76555 0 15.0499C0 23.3343 6.71562 30.0499 15 30.0499C23.2844 30.0499 30 23.3343 30 15.0499C30 6.76555 23.2844 0.0499268 15 0.0499268ZM11.3281 21.2671H8.29062V11.4921H11.3281V21.2671ZM9.79062 10.2921C8.83125 10.2921 8.21094 9.61243 8.21094 8.7718C8.21094 7.91399 8.85 7.25461 9.82969 7.25461C10.8094 7.25461 11.4094 7.91399 11.4281 8.7718C11.4281 9.61243 10.8094 10.2921 9.79062 10.2921ZM22.4219 21.2671H19.3844V15.8499C19.3844 14.589 18.9437 13.7327 17.8453 13.7327C17.0063 13.7327 16.5078 14.3124 16.2875 14.8702C16.2062 15.0687 16.1859 15.3499 16.1859 15.6296V21.2656H13.1469V14.6093C13.1469 13.389 13.1078 12.3687 13.0672 11.4906H15.7062L15.8453 12.8484H15.9062C16.3062 12.2109 17.2859 11.2702 18.925 11.2702C20.9234 11.2702 22.4219 12.6093 22.4219 15.4874V21.2671Z" fill="white"/>
<path d="M75 0.0499268C66.7165 0.0499268 60 6.76644 60 15.0499C60 23.3334 66.7165 30.0499 75 30.0499C83.2835 30.0499 90 23.3334 90 15.0499C90 6.76644 83.2835 0.0499268 75 0.0499268ZM82.2087 11.3568C82.2187 11.5142 82.2187 11.6783 82.2187 11.839C82.2187 16.7542 78.4754 22.416 71.635 22.416C69.5257 22.416 67.5703 21.8033 65.923 20.7486C66.2243 20.7821 66.5123 20.7955 66.8203 20.7955C68.5614 20.7955 70.1618 20.2062 71.4375 19.2084C69.8036 19.1749 68.4308 18.1035 67.9621 16.6303C68.5346 16.714 69.0502 16.714 69.6395 16.5633C68.7982 16.3924 68.042 15.9355 67.4994 15.2702C66.9568 14.6049 66.6612 13.7723 66.6629 12.9138V12.8669C67.1551 13.1448 67.7344 13.3156 68.3404 13.339C67.8309 12.9995 67.4131 12.5395 67.124 11.9998C66.8349 11.4601 66.6834 10.8575 66.683 10.2452C66.683 9.55216 66.8638 8.91935 67.1886 8.37024C68.1224 9.5198 69.2877 10.46 70.6087 11.1297C71.9297 11.7994 73.3768 12.1837 74.856 12.2575C74.3304 9.72961 76.2188 7.68386 78.4888 7.68386C79.5603 7.68386 80.5246 8.13252 81.2042 8.85573C82.0446 8.69836 82.8482 8.38363 83.5647 7.96176C83.2868 8.82225 82.7042 9.54881 81.9308 10.0075C82.6808 9.92716 83.404 9.71957 84.0737 9.42828C83.5681 10.1716 82.9353 10.8312 82.2087 11.3568Z" fill="white"/>
<path d="M135 0.0499268C126.716 0.0499268 120 6.76555 120 15.0499C120 23.3343 126.716 30.0499 135 30.0499C143.284 30.0499 150 23.3343 150 15.0499C150 6.76555 143.284 0.0499268 135 0.0499268ZM138.553 10.4156H136.298C136.031 10.4156 135.734 10.7671 135.734 11.2343V12.8624H138.555L138.128 15.1843H135.734V22.1546H133.073V15.1843H130.659V12.8624H133.073V11.4968C133.073 9.53743 134.433 7.94524 136.298 7.94524H138.553V10.4156Z" fill="white"/>
<path d="M209.903 8.86939C209.887 7.60766 209.65 6.35847 209.205 5.1777C208.819 4.18173 208.23 3.27721 207.475 2.52193C206.719 1.76665 205.815 1.17723 204.819 0.791315C203.653 0.353771 202.422 0.117183 201.177 0.0916261C199.575 0.0199912 199.067 0 194.998 0C190.93 0 190.409 1.11709e-07 188.818 0.0916261C187.574 0.117371 186.343 0.353956 185.178 0.791315C184.182 1.17696 183.277 1.76629 182.522 2.5216C181.766 3.27691 181.177 4.18157 180.791 5.1777C180.353 6.3424 180.117 7.57349 180.093 8.81775C180.022 10.422 180 10.9301 180 14.9983C180 19.0665 180 19.5863 180.093 21.1789C180.118 22.425 180.353 23.6545 180.791 24.8223C181.178 25.8181 181.767 26.7224 182.523 27.4774C183.279 28.2324 184.183 28.8215 185.179 29.207C186.341 29.6621 187.572 29.9157 188.819 29.9567C190.424 30.0283 190.932 30.05 195 30.05C199.068 30.05 199.59 30.05 201.181 29.9567C202.425 29.9322 203.657 29.6961 204.822 29.2587C205.818 28.8723 206.722 28.2827 207.478 27.5275C208.233 26.7723 208.822 25.868 209.209 24.8723C209.647 23.7061 209.882 22.4767 209.907 21.2289C209.978 19.6263 210 19.1182 210 15.0483C209.997 10.9801 209.997 10.4637 209.903 8.86939ZM194.988 22.6916C190.734 22.6916 187.287 19.2448 187.287 14.99C187.287 10.7352 190.734 7.28843 194.988 7.28843C197.031 7.28843 198.99 8.09984 200.434 9.54417C201.879 10.9885 202.69 12.9474 202.69 14.99C202.69 17.0326 201.879 18.9915 200.434 20.4358C198.99 21.8802 197.031 22.6916 194.988 22.6916ZM202.996 8.79942C202.761 8.79964 202.527 8.75334 202.309 8.66317C202.091 8.57299 201.893 8.44072 201.726 8.27391C201.559 8.10711 201.427 7.90905 201.337 7.69106C201.247 7.47308 201.2 7.23945 201.201 7.00355C201.201 6.76783 201.247 6.53441 201.337 6.31662C201.427 6.09884 201.56 5.90096 201.726 5.73427C201.893 5.56759 202.091 5.43537 202.309 5.34516C202.526 5.25495 202.76 5.20852 202.996 5.20852C203.231 5.20852 203.465 5.25495 203.683 5.34516C203.9 5.43537 204.098 5.56759 204.265 5.73427C204.432 5.90096 204.564 6.09884 204.654 6.31662C204.744 6.53441 204.791 6.76783 204.791 7.00355C204.791 7.99645 203.988 8.79942 202.996 8.79942Z" fill="white"/>
<path d="M194.988 19.9929C197.751 19.9929 199.991 17.753 199.991 14.9901C199.991 12.2271 197.751 9.9873 194.988 9.9873C192.225 9.9873 189.985 12.2271 189.985 14.9901C189.985 17.753 192.225 19.9929 194.988 19.9929Z" fill="white"/>
</svg>
