<svg width="164" height="148" viewBox="0 0 164 148" fill="none" xmlns="http://www.w3.org/2000/svg">
<path opacity="0.1" d="M147.6 148C151.95 148 156.121 146.267 159.197 143.184C162.272 140.1 164 135.917 164 131.556V91.3982C164 87.0369 162.272 82.8542 159.197 79.7702C156.121 76.6863 151.95 74.9538 147.6 74.9538H124.837C124.837 69.1818 125.182 63.3933 125.854 57.6213C126.871 51.504 128.577 46.0609 130.938 41.3084C133.316 36.5396 136.366 32.8067 140.106 30.0769C143.828 27.0182 148.568 25.4889 154.341 25.4889V0C144.845 0 136.547 2.03911 129.413 6.11733C122.341 10.1542 116.261 15.7283 111.619 22.4302C106.961 29.8189 103.527 37.9159 101.451 46.4062C99.3603 55.7756 98.3369 65.3528 98.4011 74.9538V131.556C98.4011 135.917 100.129 140.1 103.204 143.184C106.28 146.267 110.451 148 114.801 148H147.6ZM49.202 148C53.5515 148 57.7228 146.267 60.7983 143.184C63.8739 140.1 65.6017 135.917 65.6017 131.556V91.3982C65.6017 87.0369 63.8739 82.8542 60.7983 79.7702C57.7228 76.6863 53.5515 74.9538 49.202 74.9538H26.4392C26.4392 69.1818 26.7836 63.3933 27.456 57.6213C28.4727 51.504 30.1783 46.0609 32.5399 41.3084C34.9178 36.5396 37.9682 32.8067 41.7073 30.0769C45.4301 27.0182 50.1696 25.4889 55.9423 25.4889V0C46.4468 0 38.1486 2.03911 31.0147 6.11733C23.9429 10.1542 17.8628 15.7283 13.221 22.4302C8.56227 29.8189 5.12848 37.9159 3.05319 46.4062C0.961996 55.7756 -0.0613444 65.3528 0.00284171 74.9538V131.556C0.00284171 135.917 1.73066 140.1 4.80621 143.184C7.88175 146.267 12.0531 148 16.4026 148H49.202Z" fill="black"/>
</svg>
