<svg width="531" height="523" viewBox="0 0 531 523" fill="none" xmlns="http://www.w3.org/2000/svg">
<path d="M474.945 149.113C434.549 86.3233 373.794 40.6172 301.778 21.0009C263.949 10.6968 222.171 2.47905 182.38 3.35735C142.574 4.236 104.559 14.2254 74.5218 40.5364C45.5582 65.9067 38.3203 101.414 36.825 139.304C36.2661 153.466 36.5083 168.086 36.7503 182.7C36.832 187.629 36.9136 192.557 36.9645 197.467C37.167 216.999 36.8862 236.312 34.25 254.652C31.9583 270.597 27.5715 286.763 22.7702 303.004C21.6507 306.79 20.5075 310.585 19.3638 314.38C15.6197 326.807 11.8705 339.25 8.92954 351.507C1.2479 383.521 -1.13438 415.053 16.5675 443.613C34.2776 472.187 62.8699 486.752 94.7972 495.499C117.153 501.623 141.462 504.962 165.043 508.202C175.016 509.572 184.859 510.924 194.368 512.461C253.875 522.081 313.876 526.773 369.28 501.071C433.374 471.336 499.478 429.73 520.159 360.87C541.846 288.656 515.292 211.827 474.945 149.113Z" stroke="#080305" stroke-width="5"/>
</svg>
